<?xml version="1.0" encoding="utf-8"?>
<!-- Generator: Adobe Illustrator 19.0.0, SVG Export Plug-In . SVG Version: 6.00 Build 0)  -->
<svg version="1.1" id="图层_1" xmlns="http://www.w3.org/2000/svg" xmlns:xlink="http://www.w3.org/1999/xlink" x="0px" y="0px"
	 viewBox="0 0 200 200" style="enable-background:new 0 0 200 200;" xml:space="preserve">
<style type="text/css">
	.st0{fill:#E6E6E6;}
</style>
<g id="XMLID_2_">
	<path id="XMLID_55_" class="st0" d="M51.4,175.9c-5.8,3.9-12.8,5.4-18.6,9.5c-4.6,3.2-9.3,6.4-13.8,9.9
		c-1.4-7.3,6.1-21.2,13.4-25.6c7.1-4.3,14.2-8.8,21.3-13.1c9.8-5.9,14.7-14.9,17-25.8c1.8-8.5,1.7-17.1,1.9-25.7
		c0.5-19.6,8.5-35.4,24.1-47c9.9-7.3,20.8-13.3,30.7-20.7c8.9-6.7,15.3-15.5,15.7-27.4c0-1.2-0.5-2.7,1.1-3.9c3,2.9,2.8,7,2.7,10.1
		c-0.6,11.9-2.2,23.9-12.6,31.9c-9,7-16.8,15.1-22.3,24.8C103,88.3,95,104.1,92.6,122c-2.3,17.2-9.4,30.9-25.6,39.2
		c-6.8,3.5-13.5,7.2-20.4,10.6c-0.7,0.4-1.5,0.7-1.6,1.7c1.9,1.2,3.5-0.7,5.3-0.6C50.4,174,50.2,175.2,51.4,175.9z"/>
	<path id="XMLID_54_" class="st0" d="M167.8,14.7c1.4,15.3-1.9,28.5-10.2,40.4c-6.3,9-15,15.2-24.6,20.1
		c-9.9,5.1-18.9,11.3-25.9,20.1c-0.4,0.6-1,0.8-2.1,0.4c0.1-3.9,2.8-6.9,4.3-10.2c6.4-14.1,17.2-24.4,29.5-33.4
		c10.4-7.6,19.9-16.1,25.3-28.4C165.2,21,164.5,17.6,167.8,14.7z"/>
	<path id="XMLID_53_" class="st0" d="M100,112.9c6.5-14.7,17.5-24.6,31.6-31.4c12.7-6.1,23.9-13.9,31.7-25.9
		c0.7-1.1,1.5-2.7,3.1-1.9c1.1,0.6,0.4,2.1,0.3,3.2c-1.4,16.1-8.3,28.7-23.1,36.1c-3.7,1.8-7.7,3.3-11.7,4
		c-11.4,1.9-20.7,7.7-29.4,15C101.9,112.7,101.4,113.3,100,112.9z"/>
	<path id="XMLID_52_" class="st0" d="M169.1,78.5c-5.8,14.1-12,26.9-25.2,34.6c-8.2,4.8-17.3,6.5-26.7,7.2
		c-6.1,0.4-12.2,1.5-17.6,4.8c-1,0.6-2,1.9-3,1.1c-1.6-1.4,0.3-2.4,0.9-3.3c7.2-9.7,16.2-16.7,28.2-19.5c14-3.3,26.8-8.9,37.1-19.3
		C164.7,82.3,165.2,79.1,169.1,78.5z"/>
	<path id="XMLID_51_" class="st0" d="M156.2,111.8c-4.8,10.7-11.7,18.3-23.6,21.1c-9.7,2.3-19.6,1.2-29.3,2.7c-1.3,0.2-2.7,0-4,0.3
		c-1.9,0.4-4.5,1.9-5.3-0.4c-0.8-2.4,2.3-3.3,3.9-4.4c9-6.1,19.4-8.3,30-9.5c9.5-1.1,18.6-3.4,26.5-9.1
		C155,112.2,155.7,112,156.2,111.8z"/>
	<path id="XMLID_50_" class="st0" d="M114,144.7c0.9,0.2,2.3,0.6,3.8,0.9c3.5,0.7,6.7,2.2,6.4,6.2c-0.3,3.8-5.8,6.7-9.8,5.8
		c-3.1-0.7-6.1-1.8-9.1-2.6c-5.2-1.4-10.4-2.6-15.8-2.1c-1,0.1-2.2,0.1-2.5-1.1c-0.4-1.6,0.9-2.2,1.9-2.4
		C97,147.6,105.1,145.5,114,144.7z"/>
	<path id="XMLID_49_" class="st0" d="M85.6,155.7c7.2,0.8,14.6-0.1,21.4,3.2c2.7,1.3,4.7,2.7,3.1,6.1c-1.5,3.2-3.8,4.7-7.2,3.3
		c-1.4-0.5-2.9-1.1-4-2.1c-4.6-4.1-9.7-6.8-15.9-7.6c-1-0.1-2.3-0.8-1.8-1.8C82,154.8,84.1,156.2,85.6,155.7z"/>
	<path id="XMLID_48_" class="st0" d="M89.3,175.9c-1.8,0-2.9-1.6-3.9-3.4c-2.1-3.8-4.1-7.7-8.4-9.5c-0.8-0.3-1.5-0.9-1.3-1.9
		c0.2-1,1-1.4,1.9-1.1c5.2,1.6,10.9,1.8,15.2,5.6c1.9,1.7,3.6,3.9,2.5,6.5C94.4,174.4,92.6,176,89.3,175.9z"/>
	<path id="XMLID_47_" class="st0" d="M51.4,175.9c-1.2-0.7-1-1.9-1-3c2.7-0.9,5.5-1.2,8.3-1c1,0.1,2.2-0.1,2.2,1.3
		c0,0.9-0.8,1.4-1.7,1.6C56.6,175.2,54.1,176.3,51.4,175.9z"/>
</g>
</svg>
